solid OpenSCAD_Model
  facet normal -1 0 0
    outer loop
      vertex -1.25 -1.25 -6
      vertex -1.25 1.25 6
      vertex -1.25 1.25 -6
    endloop
  endfacet
  facet normal -1 -0 0
    outer loop
      vertex -1.25 1.25 6
      vertex -1.25 -1.25 -6
      vertex -1.25 -1.25 6
    endloop
  endfacet
  facet normal 0 0 1
    outer loop
      vertex 1.25 1.25 6
      vertex 0.65 0.65 6
      vertex 1.25 -1.25 6
    endloop
  endfacet
  facet normal 0 0 1
    outer loop
      vertex 1.25 1.25 6
      vertex -0.65 0.65 6
      vertex 0.65 0.65 6
    endloop
  endfacet
  facet normal 0 0 1
    outer loop
      vertex -0.65 0.65 6
      vertex -1.25 1.25 6
      vertex -0.65 -0.65 6
    endloop
  endfacet
  facet normal -0 0 1
    outer loop
      vertex -1.25 1.25 6
      vertex -0.65 0.65 6
      vertex 1.25 1.25 6
    endloop
  endfacet
  facet normal -0 0 1
    outer loop
      vertex 0.65 -0.65 6
      vertex 1.25 -1.25 6
      vertex 0.65 0.65 6
    endloop
  endfacet
  facet normal -0 0 1
    outer loop
      vertex -0.65 -0.65 6
      vertex 1.25 -1.25 6
      vertex 0.65 -0.65 6
    endloop
  endfacet
  facet normal 0 0 1
    outer loop
      vertex -0.65 -0.65 6
      vertex -1.25 -1.25 6
      vertex 1.25 -1.25 6
    endloop
  endfacet
  facet normal 0 0 1
    outer loop
      vertex -1.25 -1.25 6
      vertex -0.65 -0.65 6
      vertex -1.25 1.25 6
    endloop
  endfacet
  facet normal 1 -0 0
    outer loop
      vertex 1.25 -1.25 6
      vertex 1.25 1.25 -6
      vertex 1.25 1.25 6
    endloop
  endfacet
  facet normal 1 0 0
    outer loop
      vertex 1.25 1.25 -6
      vertex 1.25 -1.25 6
      vertex 1.25 -1.25 -6
    endloop
  endfacet
  facet normal 0 0 -1
    outer loop
      vertex 1.25 -1.25 -6
      vertex 0.65 -0.65 -6
      vertex 1.25 1.25 -6
    endloop
  endfacet
  facet normal 0 0 -1
    outer loop
      vertex 1.25 -1.25 -6
      vertex -0.65 -0.65 -6
      vertex 0.65 -0.65 -6
    endloop
  endfacet
  facet normal -0 0 -1
    outer loop
      vertex -0.65 -0.65 -6
      vertex -1.25 -1.25 -6
      vertex -0.65 0.65 -6
    endloop
  endfacet
  facet normal 0 0 -1
    outer loop
      vertex -1.25 -1.25 -6
      vertex -0.65 -0.65 -6
      vertex 1.25 -1.25 -6
    endloop
  endfacet
  facet normal 0 0 -1
    outer loop
      vertex 0.65 0.65 -6
      vertex 1.25 1.25 -6
      vertex 0.65 -0.65 -6
    endloop
  endfacet
  facet normal 0 0 -1
    outer loop
      vertex -0.65 0.65 -6
      vertex 1.25 1.25 -6
      vertex 0.65 0.65 -6
    endloop
  endfacet
  facet normal 0 0 -1
    outer loop
      vertex -0.65 0.65 -6
      vertex -1.25 1.25 -6
      vertex 1.25 1.25 -6
    endloop
  endfacet
  facet normal 0 0 -1
    outer loop
      vertex -1.25 1.25 -6
      vertex -0.65 0.65 -6
      vertex -1.25 -1.25 -6
    endloop
  endfacet
  facet normal 0 -1 0
    outer loop
      vertex -1.25 -1.25 -6
      vertex 1.25 -1.25 6
      vertex -1.25 -1.25 6
    endloop
  endfacet
  facet normal 0 -1 -0
    outer loop
      vertex 1.25 -1.25 6
      vertex -1.25 -1.25 -6
      vertex 1.25 -1.25 -6
    endloop
  endfacet
  facet normal 0 1 -0
    outer loop
      vertex 1.25 1.25 -6
      vertex -1.25 1.25 6
      vertex 1.25 1.25 6
    endloop
  endfacet
  facet normal 0 1 0
    outer loop
      vertex -1.25 1.25 6
      vertex 1.25 1.25 -6
      vertex -1.25 1.25 -6
    endloop
  endfacet
  facet normal 1 -0 0
    outer loop
      vertex -0.65 -0.65 6
      vertex -0.65 0.65 -6
      vertex -0.65 0.65 6
    endloop
  endfacet
  facet normal 1 0 0
    outer loop
      vertex -0.65 0.65 -6
      vertex -0.65 -0.65 6
      vertex -0.65 -0.65 -6
    endloop
  endfacet
  facet normal -1 0 0
    outer loop
      vertex 0.65 -0.65 -6
      vertex 0.65 0.65 6
      vertex 0.65 0.65 -6
    endloop
  endfacet
  facet normal -1 -0 0
    outer loop
      vertex 0.65 0.65 6
      vertex 0.65 -0.65 -6
      vertex 0.65 -0.65 6
    endloop
  endfacet
  facet normal 0 -1 0
    outer loop
      vertex -0.65 0.65 -6
      vertex 0.65 0.65 6
      vertex -0.65 0.65 6
    endloop
  endfacet
  facet normal 0 -1 -0
    outer loop
      vertex 0.65 0.65 6
      vertex -0.65 0.65 -6
      vertex 0.65 0.65 -6
    endloop
  endfacet
  facet normal 0 1 -0
    outer loop
      vertex 0.65 -0.65 -6
      vertex -0.65 -0.65 6
      vertex 0.65 -0.65 6
    endloop
  endfacet
  facet normal 0 1 0
    outer loop
      vertex -0.65 -0.65 6
      vertex 0.65 -0.65 -6
      vertex -0.65 -0.65 -6
    endloop
  endfacet
endsolid OpenSCAD_Model
