solid OpenSCAD_Model
  facet normal 0 -1 0
    outer loop
      vertex 1 0 1
      vertex 29 0 3
      vertex 0 0 1
    endloop
  endfacet
  facet normal -1 0 0
    outer loop
      vertex 0 3 0
      vertex 0 0 0
      vertex 0 0 1
    endloop
  endfacet
  facet normal 0 1 0
    outer loop
      vertex 30 3 3
      vertex 30 3 0
      vertex 0 3 0
    endloop
  endfacet
  facet normal -0.0688021 0 0.99763
    outer loop
      vertex 29 0 3
      vertex 0 3 1
      vertex 0 0 1
    endloop
  endfacet
  facet normal 0 1 0
    outer loop
      vertex 0 3 1
      vertex 30 3 3
      vertex 1 3 1
    endloop
  endfacet
  facet normal 0 0 1
    outer loop
      vertex 30 3 3
      vertex 29 3 3
      vertex 29 0 3
    endloop
  endfacet
  facet normal 0 -1 0
    outer loop
      vertex 1 0 1
      vertex 1 0 0
      vertex 29 0 3
    endloop
  endfacet
  facet normal 0 -1 0
    outer loop
      vertex 0 0 1
      vertex 1 0 0
      vertex 1 0 1
    endloop
  endfacet
  facet normal 0 1 0
    outer loop
      vertex 0 3 0
      vertex 0 3 1
      vertex 1 3 1
    endloop
  endfacet
  facet normal -1 0 0
    outer loop
      vertex 0 0 1
      vertex 0 3 1
      vertex 0 3 0
    endloop
  endfacet
  facet normal 0 -1 0
    outer loop
      vertex 30 0 0
      vertex 30 0 3
      vertex 29 0 3
    endloop
  endfacet
  facet normal -0 1 0
    outer loop
      vertex 1 3 1
      vertex 30 3 3
      vertex 0 3 0
    endloop
  endfacet
  facet normal 0 0 -1
    outer loop
      vertex 1 0 0
      vertex 0 0 0
      vertex 0 3 0
    endloop
  endfacet
  facet normal 0 -1 0
    outer loop
      vertex 0 0 1
      vertex 0 0 0
      vertex 1 0 0
    endloop
  endfacet
  facet normal 0 1 0
    outer loop
      vertex 0 3 1
      vertex 29 3 3
      vertex 30 3 3
    endloop
  endfacet
  facet normal -0.0688021 0 0.99763
    outer loop
      vertex 29 0 3
      vertex 29 3 3
      vertex 0 3 1
    endloop
  endfacet
  facet normal 0 -1 0
    outer loop
      vertex 1 0 0
      vertex 30 0 0
      vertex 29 0 3
    endloop
  endfacet
  facet normal 0 0 -1
    outer loop
      vertex 0 3 0
      vertex 30 0 0
      vertex 1 0 0
    endloop
  endfacet
  facet normal 1 0 0
    outer loop
      vertex 30 0 0
      vertex 30 3 0
      vertex 30 3 3
    endloop
  endfacet
  facet normal 0 0 -1
    outer loop
      vertex 0 3 0
      vertex 30 3 0
      vertex 30 0 0
    endloop
  endfacet
  facet normal 1 0 0
    outer loop
      vertex 30 3 3
      vertex 30 0 3
      vertex 30 0 0
    endloop
  endfacet
  facet normal 0 0 1
    outer loop
      vertex 29 0 3
      vertex 30 0 3
      vertex 30 3 3
    endloop
  endfacet
endsolid OpenSCAD_Model
