solid OpenSCAD_Model
  facet normal -1 0 0
    outer loop
      vertex -6.5 0 0
      vertex -6.5 7 9.82836
      vertex -6.5 7 0
    endloop
  endfacet
  facet normal -1 -0 0
    outer loop
      vertex -6.5 7 9.82836
      vertex -6.5 0 0
      vertex -6.5 0 9.82836
    endloop
  endfacet
  facet normal 1 -0 0
    outer loop
      vertex 6.5 0 9.82836
      vertex 6.5 7 0
      vertex 6.5 7 9.82836
    endloop
  endfacet
  facet normal 1 0 0
    outer loop
      vertex 6.5 7 0
      vertex 6.5 0 9.82836
      vertex 6.5 0 0
    endloop
  endfacet
  facet normal 0 0 -1
    outer loop
      vertex -6.5 0 0
      vertex 6.5 7 0
      vertex 6.5 0 0
    endloop
  endfacet
  facet normal -0 0 -1
    outer loop
      vertex 6.5 7 0
      vertex -6.5 0 0
      vertex -6.5 7 0
    endloop
  endfacet
  facet normal 0 -1 -0
    outer loop
      vertex -0.565114 0 7.06776
      vertex -6.5 0 0
      vertex 0 0 7.05
    endloop
  endfacet
  facet normal 0 -1 -0
    outer loop
      vertex -1.128 0 7.12097
      vertex -6.5 0 0
      vertex -0.565114 0 7.06776
    endloop
  endfacet
  facet normal 0 -1 -0
    outer loop
      vertex -1.68643 0 7.20941
      vertex -6.5 0 0
      vertex -1.128 0 7.12097
    endloop
  endfacet
  facet normal 0 -1 -0
    outer loop
      vertex -2.23821 0 7.33275
      vertex -6.5 0 0
      vertex -1.68643 0 7.20941
    endloop
  endfacet
  facet normal 0 -1 -0
    outer loop
      vertex -2.78115 0 7.49049
      vertex -6.5 0 0
      vertex -2.23821 0 7.33275
    endloop
  endfacet
  facet normal 0 -1 -0
    outer loop
      vertex -3.31312 0 7.68201
      vertex -6.5 0 0
      vertex -2.78115 0 7.49049
    endloop
  endfacet
  facet normal 0 -1 -0
    outer loop
      vertex -3.83201 0 7.90656
      vertex -6.5 0 0
      vertex -3.31312 0 7.68201
    endloop
  endfacet
  facet normal 0 -1 -0
    outer loop
      vertex -4.33578 0 8.16324
      vertex -6.5 0 0
      vertex -3.83201 0 7.90656
    endloop
  endfacet
  facet normal 0 -1 -0
    outer loop
      vertex -4.82244 0 8.45105
      vertex -6.5 0 0
      vertex -4.33578 0 8.16324
    endloop
  endfacet
  facet normal 0 -1 -0
    outer loop
      vertex -5.29007 0 8.76885
      vertex -6.5 0 0
      vertex -4.82244 0 8.45105
    endloop
  endfacet
  facet normal 0 -1 -0
    outer loop
      vertex -5.73682 0 9.11538
      vertex -6.5 0 0
      vertex -5.29007 0 8.76885
    endloop
  endfacet
  facet normal 0 -1 -0
    outer loop
      vertex -6.16092 0 9.48928
      vertex -6.5 0 0
      vertex -5.73682 0 9.11538
    endloop
  endfacet
  facet normal 0 -1 0
    outer loop
      vertex -6.5 0 0
      vertex -6.16092 0 9.48928
      vertex -6.5 0 9.82836
    endloop
  endfacet
  facet normal 0 -1 0
    outer loop
      vertex 6.5 0 0
      vertex 0 0 7.05
      vertex -6.5 0 0
    endloop
  endfacet
  facet normal 0 -1 0
    outer loop
      vertex 0 0 7.05
      vertex 6.5 0 0
      vertex 0.565114 0 7.06776
    endloop
  endfacet
  facet normal 0 -1 0
    outer loop
      vertex 0.565114 0 7.06776
      vertex 6.5 0 0
      vertex 1.128 0 7.12097
    endloop
  endfacet
  facet normal 0 -1 0
    outer loop
      vertex 1.128 0 7.12097
      vertex 6.5 0 0
      vertex 1.68643 0 7.20941
    endloop
  endfacet
  facet normal 0 -1 0
    outer loop
      vertex 1.68643 0 7.20941
      vertex 6.5 0 0
      vertex 2.23821 0 7.33275
    endloop
  endfacet
  facet normal 0 -1 0
    outer loop
      vertex 2.23821 0 7.33275
      vertex 6.5 0 0
      vertex 2.78115 0 7.49049
    endloop
  endfacet
  facet normal 0 -1 0
    outer loop
      vertex 2.78115 0 7.49049
      vertex 6.5 0 0
      vertex 3.31312 0 7.68201
    endloop
  endfacet
  facet normal 0 -1 0
    outer loop
      vertex 3.31312 0 7.68201
      vertex 6.5 0 0
      vertex 3.83201 0 7.90656
    endloop
  endfacet
  facet normal 0 -1 0
    outer loop
      vertex 3.83201 0 7.90656
      vertex 6.5 0 0
      vertex 4.33578 0 8.16324
    endloop
  endfacet
  facet normal 0 -1 0
    outer loop
      vertex 4.33578 0 8.16324
      vertex 6.5 0 0
      vertex 4.82244 0 8.45105
    endloop
  endfacet
  facet normal 0 -1 0
    outer loop
      vertex 6.16092 0 9.48928
      vertex 6.5 0 0
      vertex 6.5 0 9.82836
    endloop
  endfacet
  facet normal 0 -1 0
    outer loop
      vertex 5.73682 0 9.11538
      vertex 6.5 0 0
      vertex 6.16092 0 9.48928
    endloop
  endfacet
  facet normal 0 -1 0
    outer loop
      vertex 5.29007 0 8.76885
      vertex 6.5 0 0
      vertex 5.73682 0 9.11538
    endloop
  endfacet
  facet normal 0 -1 0
    outer loop
      vertex 4.82244 0 8.45105
      vertex 6.5 0 0
      vertex 5.29007 0 8.76885
    endloop
  endfacet
  facet normal 0 1 0
    outer loop
      vertex 0.565114 7 7.06776
      vertex 6.5 7 0
      vertex 0 7 7.05
    endloop
  endfacet
  facet normal 0 1 0
    outer loop
      vertex 1.128 7 7.12097
      vertex 6.5 7 0
      vertex 0.565114 7 7.06776
    endloop
  endfacet
  facet normal 0 1 0
    outer loop
      vertex 1.68643 7 7.20941
      vertex 6.5 7 0
      vertex 1.128 7 7.12097
    endloop
  endfacet
  facet normal 0 1 0
    outer loop
      vertex 2.23821 7 7.33275
      vertex 6.5 7 0
      vertex 1.68643 7 7.20941
    endloop
  endfacet
  facet normal 0 1 0
    outer loop
      vertex 2.78115 7 7.49049
      vertex 6.5 7 0
      vertex 2.23821 7 7.33275
    endloop
  endfacet
  facet normal 0 1 0
    outer loop
      vertex 3.31312 7 7.68201
      vertex 6.5 7 0
      vertex 2.78115 7 7.49049
    endloop
  endfacet
  facet normal 0 1 0
    outer loop
      vertex 3.83201 7 7.90656
      vertex 6.5 7 0
      vertex 3.31312 7 7.68201
    endloop
  endfacet
  facet normal 0 1 0
    outer loop
      vertex 4.33578 7 8.16324
      vertex 6.5 7 0
      vertex 3.83201 7 7.90656
    endloop
  endfacet
  facet normal 0 1 0
    outer loop
      vertex 4.82244 7 8.45105
      vertex 6.5 7 0
      vertex 4.33578 7 8.16324
    endloop
  endfacet
  facet normal 0 1 0
    outer loop
      vertex 5.29007 7 8.76885
      vertex 6.5 7 0
      vertex 4.82244 7 8.45105
    endloop
  endfacet
  facet normal 0 1 0
    outer loop
      vertex 5.73682 7 9.11538
      vertex 6.5 7 0
      vertex 5.29007 7 8.76885
    endloop
  endfacet
  facet normal 0 1 0
    outer loop
      vertex 6.16092 7 9.48928
      vertex 6.5 7 0
      vertex 5.73682 7 9.11538
    endloop
  endfacet
  facet normal 0 1 -0
    outer loop
      vertex 6.5 7 0
      vertex 6.16092 7 9.48928
      vertex 6.5 7 9.82836
    endloop
  endfacet
  facet normal 0 1 0
    outer loop
      vertex -6.5 7 0
      vertex 0 7 7.05
      vertex 6.5 7 0
    endloop
  endfacet
  facet normal 0 1 0
    outer loop
      vertex 0 7 7.05
      vertex -6.5 7 0
      vertex -0.565114 7 7.06776
    endloop
  endfacet
  facet normal 0 1 0
    outer loop
      vertex -0.565114 7 7.06776
      vertex -6.5 7 0
      vertex -1.128 7 7.12097
    endloop
  endfacet
  facet normal 0 1 0
    outer loop
      vertex -1.128 7 7.12097
      vertex -6.5 7 0
      vertex -1.68643 7 7.20941
    endloop
  endfacet
  facet normal 0 1 0
    outer loop
      vertex -1.68643 7 7.20941
      vertex -6.5 7 0
      vertex -2.23821 7 7.33275
    endloop
  endfacet
  facet normal 0 1 0
    outer loop
      vertex -2.23821 7 7.33275
      vertex -6.5 7 0
      vertex -2.78115 7 7.49049
    endloop
  endfacet
  facet normal 0 1 0
    outer loop
      vertex -2.78115 7 7.49049
      vertex -6.5 7 0
      vertex -3.31312 7 7.68201
    endloop
  endfacet
  facet normal 0 1 0
    outer loop
      vertex -3.31312 7 7.68201
      vertex -6.5 7 0
      vertex -3.83201 7 7.90656
    endloop
  endfacet
  facet normal 0 1 0
    outer loop
      vertex -3.83201 7 7.90656
      vertex -6.5 7 0
      vertex -4.33578 7 8.16324
    endloop
  endfacet
  facet normal 0 1 0
    outer loop
      vertex -4.33578 7 8.16324
      vertex -6.5 7 0
      vertex -4.82244 7 8.45105
    endloop
  endfacet
  facet normal 0 1 0
    outer loop
      vertex -6.16092 7 9.48928
      vertex -6.5 7 0
      vertex -6.5 7 9.82836
    endloop
  endfacet
  facet normal 0 1 0
    outer loop
      vertex -5.73682 7 9.11538
      vertex -6.5 7 0
      vertex -6.16092 7 9.48928
    endloop
  endfacet
  facet normal 0 1 0
    outer loop
      vertex -5.29007 7 8.76885
      vertex -6.5 7 0
      vertex -5.73682 7 9.11538
    endloop
  endfacet
  facet normal 0 1 0
    outer loop
      vertex -4.82244 7 8.45105
      vertex -6.5 7 0
      vertex -5.29007 7 8.76885
    endloop
  endfacet
  facet normal 0.0314118 0 0.999507
    outer loop
      vertex -0.565114 7 7.06776
      vertex 0 0 7.05
      vertex 0 7 7.05
    endloop
  endfacet
  facet normal 0.0314118 0 0.999507
    outer loop
      vertex 0 0 7.05
      vertex -0.565114 7 7.06776
      vertex -0.565114 0 7.06776
    endloop
  endfacet
  facet normal -0.661317 0 0.750106
    outer loop
      vertex 5.73682 7 9.11538
      vertex 6.16092 0 9.48928
      vertex 6.16092 7 9.48928
    endloop
  endfacet
  facet normal -0.661317 0 0.750106
    outer loop
      vertex 6.16092 0 9.48928
      vertex 5.73682 7 9.11538
      vertex 5.73682 0 9.11538
    endloop
  endfacet
  facet normal 0.707107 0 0.707107
    outer loop
      vertex -6.5 7 9.82836
      vertex -6.16092 0 9.48928
      vertex -6.16092 7 9.48928
    endloop
  endfacet
  facet normal 0.707107 0 0.707107
    outer loop
      vertex -6.16092 0 9.48928
      vertex -6.5 7 9.82836
      vertex -6.5 0 9.82836
    endloop
  endfacet
  facet normal 0.661317 0 0.750106
    outer loop
      vertex -6.16092 7 9.48928
      vertex -5.73682 0 9.11538
      vertex -5.73682 7 9.11538
    endloop
  endfacet
  facet normal 0.661317 0 0.750106
    outer loop
      vertex -5.73682 0 9.11538
      vertex -6.16092 7 9.48928
      vertex -6.16092 0 9.48928
    endloop
  endfacet
  facet normal 0.156423 0 0.98769
    outer loop
      vertex -1.68643 7 7.20941
      vertex -1.128 0 7.12097
      vertex -1.128 7 7.12097
    endloop
  endfacet
  facet normal 0.156423 0 0.98769
    outer loop
      vertex -1.128 0 7.12097
      vertex -1.68643 7 7.20941
      vertex -1.68643 0 7.20941
    endloop
  endfacet
  facet normal -0.156423 0 0.98769
    outer loop
      vertex 1.128 7 7.12097
      vertex 1.68643 0 7.20941
      vertex 1.68643 7 7.20941
    endloop
  endfacet
  facet normal -0.156423 0 0.98769
    outer loop
      vertex 1.68643 0 7.20941
      vertex 1.128 7 7.12097
      vertex 1.128 0 7.12097
    endloop
  endfacet
  facet normal -0.278993 0 0.960293
    outer loop
      vertex 2.23821 7 7.33275
      vertex 2.78115 0 7.49049
      vertex 2.78115 7 7.49049
    endloop
  endfacet
  facet normal -0.278993 0 0.960293
    outer loop
      vertex 2.78115 0 7.49049
      vertex 2.23821 7 7.33275
      vertex 2.23821 0 7.33275
    endloop
  endfacet
  facet normal -0.0941111 0 0.995562
    outer loop
      vertex 0.565114 7 7.06776
      vertex 1.128 0 7.12097
      vertex 1.128 7 7.12097
    endloop
  endfacet
  facet normal -0.0941111 0 0.995562
    outer loop
      vertex 1.128 0 7.12097
      vertex 0.565114 7 7.06776
      vertex 0.565114 0 7.06776
    endloop
  endfacet
  facet normal -0.509042 0 0.860742
    outer loop
      vertex 4.33578 7 8.16324
      vertex 4.82244 0 8.45105
      vertex 4.82244 7 8.45105
    endloop
  endfacet
  facet normal -0.509042 0 0.860742
    outer loop
      vertex 4.82244 0 8.45105
      vertex 4.33578 7 8.16324
      vertex 4.33578 0 8.16324
    endloop
  endfacet
  facet normal 0.562082 0 0.827081
    outer loop
      vertex -5.29007 7 8.76885
      vertex -4.82244 0 8.45105
      vertex -4.82244 7 8.45105
    endloop
  endfacet
  facet normal 0.562082 0 0.827081
    outer loop
      vertex -4.82244 0 8.45105
      vertex -5.29007 7 8.76885
      vertex -5.29007 0 8.76885
    endloop
  endfacet
  facet normal 0.612902 0 0.790159
    outer loop
      vertex -5.73682 7 9.11538
      vertex -5.29007 0 8.76885
      vertex -5.29007 7 8.76885
    endloop
  endfacet
  facet normal 0.612902 0 0.790159
    outer loop
      vertex -5.29007 0 8.76885
      vertex -5.73682 7 9.11538
      vertex -5.73682 0 9.11538
    endloop
  endfacet
  facet normal 0.278993 0 0.960293
    outer loop
      vertex -2.78115 7 7.49049
      vertex -2.23821 0 7.33275
      vertex -2.23821 7 7.33275
    endloop
  endfacet
  facet normal 0.278993 0 0.960293
    outer loop
      vertex -2.23821 0 7.33275
      vertex -2.78115 7 7.49049
      vertex -2.78115 0 7.49049
    endloop
  endfacet
  facet normal 0.0941111 0 0.995562
    outer loop
      vertex -1.128 7 7.12097
      vertex -0.565114 0 7.06776
      vertex -0.565114 7 7.06776
    endloop
  endfacet
  facet normal 0.0941111 0 0.995562
    outer loop
      vertex -0.565114 0 7.06776
      vertex -1.128 7 7.12097
      vertex -1.128 0 7.12097
    endloop
  endfacet
  facet normal -0.218148 0 0.975916
    outer loop
      vertex 1.68643 7 7.20941
      vertex 2.23821 0 7.33275
      vertex 2.23821 7 7.33275
    endloop
  endfacet
  facet normal -0.218148 0 0.975916
    outer loop
      vertex 2.23821 0 7.33275
      vertex 1.68643 7 7.20941
      vertex 1.68643 0 7.20941
    endloop
  endfacet
  facet normal -0.0314118 0 0.999507
    outer loop
      vertex 0 7 7.05
      vertex 0.565114 0 7.06776
      vertex 0.565114 7 7.06776
    endloop
  endfacet
  facet normal -0.0314118 0 0.999507
    outer loop
      vertex 0.565114 0 7.06776
      vertex 0 7 7.05
      vertex 0 0 7.05
    endloop
  endfacet
  facet normal -0.338736 0 0.940881
    outer loop
      vertex 2.78115 7 7.49049
      vertex 3.31312 0 7.68201
      vertex 3.31312 7 7.68201
    endloop
  endfacet
  facet normal -0.338736 0 0.940881
    outer loop
      vertex 3.31312 0 7.68201
      vertex 2.78115 7 7.49049
      vertex 2.78115 0 7.49049
    endloop
  endfacet
  facet normal -0.453985 0 0.891009
    outer loop
      vertex 3.83201 7 7.90656
      vertex 4.33578 0 8.16324
      vertex 4.33578 7 8.16324
    endloop
  endfacet
  facet normal -0.453985 0 0.891009
    outer loop
      vertex 4.33578 0 8.16324
      vertex 3.83201 7 7.90656
      vertex 3.83201 0 7.90656
    endloop
  endfacet
  facet normal -0.562082 0 0.827081
    outer loop
      vertex 4.82244 7 8.45105
      vertex 5.29007 0 8.76885
      vertex 5.29007 7 8.76885
    endloop
  endfacet
  facet normal -0.562082 0 0.827081
    outer loop
      vertex 5.29007 0 8.76885
      vertex 4.82244 7 8.45105
      vertex 4.82244 0 8.45105
    endloop
  endfacet
  facet normal -0.612902 0 0.790159
    outer loop
      vertex 5.29007 7 8.76885
      vertex 5.73682 0 9.11538
      vertex 5.73682 7 9.11538
    endloop
  endfacet
  facet normal -0.612902 0 0.790159
    outer loop
      vertex 5.73682 0 9.11538
      vertex 5.29007 7 8.76885
      vertex 5.29007 0 8.76885
    endloop
  endfacet
  facet normal 0.509042 0 0.860742
    outer loop
      vertex -4.82244 7 8.45105
      vertex -4.33578 0 8.16324
      vertex -4.33578 7 8.16324
    endloop
  endfacet
  facet normal 0.509042 0 0.860742
    outer loop
      vertex -4.33578 0 8.16324
      vertex -4.82244 7 8.45105
      vertex -4.82244 0 8.45105
    endloop
  endfacet
  facet normal 0.397157 0 0.917751
    outer loop
      vertex -3.83201 7 7.90656
      vertex -3.31312 0 7.68201
      vertex -3.31312 7 7.68201
    endloop
  endfacet
  facet normal 0.397157 0 0.917751
    outer loop
      vertex -3.31312 0 7.68201
      vertex -3.83201 7 7.90656
      vertex -3.83201 0 7.90656
    endloop
  endfacet
  facet normal 0.218148 0 0.975916
    outer loop
      vertex -2.23821 7 7.33275
      vertex -1.68643 0 7.20941
      vertex -1.68643 7 7.20941
    endloop
  endfacet
  facet normal 0.218148 0 0.975916
    outer loop
      vertex -1.68643 0 7.20941
      vertex -2.23821 7 7.33275
      vertex -2.23821 0 7.33275
    endloop
  endfacet
  facet normal -0.707107 0 0.707107
    outer loop
      vertex 6.16092 7 9.48928
      vertex 6.5 0 9.82836
      vertex 6.5 7 9.82836
    endloop
  endfacet
  facet normal -0.707107 0 0.707107
    outer loop
      vertex 6.5 0 9.82836
      vertex 6.16092 7 9.48928
      vertex 6.16092 0 9.48928
    endloop
  endfacet
  facet normal -0.397157 0 0.917751
    outer loop
      vertex 3.31312 7 7.68201
      vertex 3.83201 0 7.90656
      vertex 3.83201 7 7.90656
    endloop
  endfacet
  facet normal -0.397157 0 0.917751
    outer loop
      vertex 3.83201 0 7.90656
      vertex 3.31312 7 7.68201
      vertex 3.31312 0 7.68201
    endloop
  endfacet
  facet normal 0.453985 0 0.891009
    outer loop
      vertex -4.33578 7 8.16324
      vertex -3.83201 0 7.90656
      vertex -3.83201 7 7.90656
    endloop
  endfacet
  facet normal 0.453985 0 0.891009
    outer loop
      vertex -3.83201 0 7.90656
      vertex -4.33578 7 8.16324
      vertex -4.33578 0 8.16324
    endloop
  endfacet
  facet normal 0.338736 0 0.940881
    outer loop
      vertex -3.31312 7 7.68201
      vertex -2.78115 0 7.49049
      vertex -2.78115 7 7.49049
    endloop
  endfacet
  facet normal 0.338736 0 0.940881
    outer loop
      vertex -2.78115 0 7.49049
      vertex -3.31312 7 7.68201
      vertex -3.31312 0 7.68201
    endloop
  endfacet
endsolid OpenSCAD_Model
