solid OpenSCAD_Model
  facet normal 0.999508 -0 0.0313668
    outer loop
      vertex 29.5733 -3.5 16.9008
      vertex 29.6 -3.5 16.05
      vertex 29.5733 3.5 16.9008
    endloop
  endfacet
  facet normal 0 1 0
    outer loop
      vertex 2.5 3.5 0
      vertex 8.78955 3.5 27.4906
      vertex 29.5733 3.5 16.9008
    endloop
  endfacet
  facet normal 0.995563 0 0.0940939
    outer loop
      vertex 29.4932 3.5 17.7483
      vertex 29.4932 -3.5 17.7483
      vertex 29.5733 -3.5 16.9008
    endloop
  endfacet
  facet normal 0.999508 -0 0.0313668
    outer loop
      vertex 29.6 -3.5 16.05
      vertex 29.6 3.5 16.05
      vertex 29.5733 3.5 16.9008
    endloop
  endfacet
  facet normal -1 0 0
    outer loop
      vertex 2.5 -3.5 0
      vertex 2.5 3.5 16.05
      vertex 2.5 3.5 0
    endloop
  endfacet
  facet normal -0 1 0
    outer loop
      vertex 8.78955 3.5 27.4906
      vertex 22.5778 3.5 27.924
      vertex 29.5733 3.5 16.9008
    endloop
  endfacet
  facet normal 0 -1 0
    outer loop
      vertex 2.5 -3.5 0
      vertex 29.6 -3.5 0
      vertex 29.6 -3.5 16.05
    endloop
  endfacet
  facet normal 0 -1 -0
    outer loop
      vertex 29.5733 -3.5 16.9008
      vertex 2.5 -3.5 0
      vertex 29.6 -3.5 16.05
    endloop
  endfacet
  facet normal 0 0 -1
    outer loop
      vertex 2.5 3.5 0
      vertex 29.6 3.5 0
      vertex 2.5 -3.5 0
    endloop
  endfacet
  facet normal 0 1 0
    outer loop
      vertex 29.5733 3.5 16.9008
      vertex 29.6 3.5 0
      vertex 2.5 3.5 0
    endloop
  endfacet
  facet normal -0.509118 0 0.860697
    outer loop
      vertex 8.78955 -3.5 27.4906
      vertex 9.52224 3.5 27.924
      vertex 8.78955 3.5 27.4906
    endloop
  endfacet
  facet normal 0 1 0
    outer loop
      vertex 22.5778 3.5 27.924
      vertex 27.4906 3.5 23.3105
      vertex 29.5733 3.5 16.9008
    endloop
  endfacet
  facet normal 0 -1 0
    outer loop
      vertex 8.78955 -3.5 27.4906
      vertex 2.9257 -3.5 19.4197
      vertex 2.5 -3.5 0
    endloop
  endfacet
  facet normal -0 -1 0
    outer loop
      vertex 29.5733 -3.5 16.9008
      vertex 8.78955 -3.5 27.4906
      vertex 2.5 -3.5 0
    endloop
  endfacet
  facet normal 0 1 0
    outer loop
      vertex 2.9257 3.5 19.4197
      vertex 5.08782 3.5 24.0145
      vertex 8.78955 3.5 27.4906
    endloop
  endfacet
  facet normal 0 1 0
    outer loop
      vertex 2.5 3.5 0
      vertex 2.9257 3.5 19.4197
      vertex 8.78955 3.5 27.4906
    endloop
  endfacet
  facet normal 1 0 -0
    outer loop
      vertex 29.6 3.5 0
      vertex 29.6 3.5 16.05
      vertex 29.6 -3.5 16.05
    endloop
  endfacet
  facet normal 0 1 0
    outer loop
      vertex 29.5733 3.5 16.9008
      vertex 29.6 3.5 16.05
      vertex 29.6 3.5 0
    endloop
  endfacet
  facet normal 0 -0 -1
    outer loop
      vertex 29.6 3.5 0
      vertex 29.6 -3.5 0
      vertex 2.5 -3.5 0
    endloop
  endfacet
  facet normal 1 0 0
    outer loop
      vertex 29.6 -3.5 16.05
      vertex 29.6 -3.5 0
      vertex 29.6 3.5 0
    endloop
  endfacet
  facet normal 0.509113 -0 0.8607
    outer loop
      vertex 22.5778 -3.5 27.924
      vertex 23.3105 3.5 27.4906
      vertex 22.5778 3.5 27.924
    endloop
  endfacet
  facet normal 0 1 0
    outer loop
      vertex 27.4906 3.5 23.3105
      vertex 28.9368 3.5 20.2372
      vertex 29.5733 3.5 16.9008
    endloop
  endfacet
  facet normal -0 -1 0
    outer loop
      vertex 22.5778 -3.5 27.924
      vertex 16.05 -3.5 29.6
      vertex 8.78955 -3.5 27.4906
    endloop
  endfacet
  facet normal 0 -1 0
    outer loop
      vertex 29.5733 -3.5 16.9008
      vertex 22.5778 -3.5 27.924
      vertex 8.78955 -3.5 27.4906
    endloop
  endfacet
  facet normal 0 1 0
    outer loop
      vertex 16.05 3.5 29.6
      vertex 19.4197 3.5 29.1743
      vertex 22.5778 3.5 27.924
    endloop
  endfacet
  facet normal 0 1 0
    outer loop
      vertex 8.78955 3.5 27.4906
      vertex 16.05 3.5 29.6
      vertex 22.5778 3.5 27.924
    endloop
  endfacet
  facet normal -0.960302 0 0.278963
    outer loop
      vertex 2.9257 -3.5 19.4197
      vertex 3.16318 3.5 20.2372
      vertex 2.9257 3.5 19.4197
    endloop
  endfacet
  facet normal 0 1 0
    outer loop
      vertex 2.5 3.5 0
      vertex 2.5 3.5 16.05
      vertex 2.9257 3.5 19.4197
    endloop
  endfacet
  facet normal 0 1 0
    outer loop
      vertex 2.5 3.5 16.05
      vertex 2.60685 3.5 17.7483
      vertex 2.9257 3.5 19.4197
    endloop
  endfacet
  facet normal 0 -1 0
    outer loop
      vertex 2.9257 -3.5 19.4197
      vertex 2.5 -3.5 16.05
      vertex 2.5 -3.5 0
    endloop
  endfacet
  facet normal 0 1 0
    outer loop
      vertex 5.08782 3.5 24.0145
      vertex 5.60955 3.5 24.6871
      vertex 6.17247 3.5 25.3256
    endloop
  endfacet
  facet normal 0 1 0
    outer loop
      vertex 5.08782 3.5 24.0145
      vertex 6.77439 3.5 25.9275
      vertex 8.78955 3.5 27.4906
    endloop
  endfacet
  facet normal 0.8607 -0 0.509113
    outer loop
      vertex 27.4906 -3.5 23.3105
      vertex 27.924 3.5 22.5778
      vertex 27.4906 3.5 23.3105
    endloop
  endfacet
  facet normal 0 1 0
    outer loop
      vertex 28.9368 3.5 20.2372
      vertex 29.36 3.5 18.589
      vertex 29.5733 3.5 16.9008
    endloop
  endfacet
  facet normal 0 -1 0
    outer loop
      vertex 27.4906 -3.5 23.3105
      vertex 25.3256 -3.5 25.9275
      vertex 22.5778 -3.5 27.924
    endloop
  endfacet
  facet normal 0 -1 0
    outer loop
      vertex 29.5733 -3.5 16.9008
      vertex 27.4906 -3.5 23.3105
      vertex 22.5778 -3.5 27.924
    endloop
  endfacet
  facet normal 0 1 0
    outer loop
      vertex 25.3256 3.5 25.9275
      vertex 26.4905 3.5 24.6871
      vertex 27.4906 3.5 23.3105
    endloop
  endfacet
  facet normal 0 1 0
    outer loop
      vertex 22.5778 3.5 27.924
      vertex 25.3256 3.5 25.9275
      vertex 27.4906 3.5 23.3105
    endloop
  endfacet
  facet normal 0.0313668 -0 0.999508
    outer loop
      vertex 16.05 -3.5 29.6
      vertex 16.9008 3.5 29.5733
      vertex 16.05 3.5 29.6
    endloop
  endfacet
  facet normal 0 1 0
    outer loop
      vertex 8.78955 3.5 27.4906
      vertex 11.8628 3.5 28.9368
      vertex 16.05 3.5 29.6
    endloop
  endfacet
  facet normal 0 1 0
    outer loop
      vertex 11.8628 3.5 28.9368
      vertex 14.3517 3.5 29.4932
      vertex 16.05 3.5 29.6
    endloop
  endfacet
  facet normal 0 -1 0
    outer loop
      vertex 16.05 -3.5 29.6
      vertex 11.8628 -3.5 28.9368
      vertex 8.78955 -3.5 27.4906
    endloop
  endfacet
  facet normal 0.278985 -0 0.960295
    outer loop
      vertex 19.4197 -3.5 29.1743
      vertex 20.2372 3.5 28.9368
      vertex 19.4197 3.5 29.1743
    endloop
  endfacet
  facet normal 0 1 0
    outer loop
      vertex 19.4197 3.5 29.1743
      vertex 21.0381 3.5 28.6485
      vertex 22.5778 3.5 27.924
    endloop
  endfacet
  facet normal -0.975915 0 0.218151
    outer loop
      vertex 2.74001 3.5 18.589
      vertex 2.74001 -3.5 18.589
      vertex 2.9257 -3.5 19.4197
    endloop
  endfacet
  facet normal 0 1 0
    outer loop
      vertex 2.60685 3.5 17.7483
      vertex 2.74001 3.5 18.589
      vertex 2.9257 3.5 19.4197
    endloop
  endfacet
  facet normal -0.999506 0 0.0314137
    outer loop
      vertex 2.5 -3.5 16.05
      vertex 2.52674 3.5 16.9008
      vertex 2.5 3.5 16.05
    endloop
  endfacet
  facet normal -1 0 0
    outer loop
      vertex 2.5 -3.5 0
      vertex 2.5 -3.5 16.05
      vertex 2.5 3.5 16.05
    endloop
  endfacet
  facet normal 0 1 0
    outer loop
      vertex 3.78959 3.5 21.8193
      vertex 4.60936 3.5 23.3105
      vertex 5.08782 3.5 24.0145
    endloop
  endfacet
  facet normal 0 1 0
    outer loop
      vertex 2.9257 3.5 19.4197
      vertex 3.78959 3.5 21.8193
      vertex 5.08782 3.5 24.0145
    endloop
  endfacet
  facet normal -0.940878 0 0.338747
    outer loop
      vertex 3.16318 3.5 20.2372
      vertex 3.45153 -3.5 21.0381
      vertex 3.45153 3.5 21.0381
    endloop
  endfacet
  facet normal 0 -1 0
    outer loop
      vertex 8.78955 -3.5 27.4906
      vertex 5.08782 -3.5 24.0145
      vertex 2.9257 -3.5 19.4197
    endloop
  endfacet
  facet normal -0.661363 0 0.750066
    outer loop
      vertex 6.77439 -3.5 25.9275
      vertex 7.4129 3.5 26.4905
      vertex 6.77439 3.5 25.9275
    endloop
  endfacet
  facet normal 0 1 0
    outer loop
      vertex 6.77439 3.5 25.9275
      vertex 7.4129 3.5 26.4905
      vertex 8.78955 3.5 27.4906
    endloop
  endfacet
  facet normal 0.975913 0 0.218162
    outer loop
      vertex 29.36 3.5 18.589
      vertex 29.1743 3.5 19.4197
      vertex 29.36 -3.5 18.589
    endloop
  endfacet
  facet normal 0 1 0
    outer loop
      vertex 29.36 3.5 18.589
      vertex 29.4932 3.5 17.7483
      vertex 29.5733 3.5 16.9008
    endloop
  endfacet
  facet normal 0.8607 0 0.509113
    outer loop
      vertex 27.4906 -3.5 23.3105
      vertex 27.924 -3.5 22.5778
      vertex 27.924 3.5 22.5778
    endloop
  endfacet
  facet normal 0 -1 0
    outer loop
      vertex 29.5733 -3.5 16.9008
      vertex 28.9368 -3.5 20.2372
      vertex 27.4906 -3.5 23.3105
    endloop
  endfacet
  facet normal 0 -1 0
    outer loop
      vertex 28.9368 -3.5 20.2372
      vertex 28.6485 -3.5 21.0381
      vertex 28.3104 -3.5 21.8193
    endloop
  endfacet
  facet normal 0 1 0
    outer loop
      vertex 27.4906 3.5 23.3105
      vertex 28.3104 3.5 21.8193
      vertex 28.9368 3.5 20.2372
    endloop
  endfacet
  facet normal 0.707107 -0 0.707107
    outer loop
      vertex 25.3256 -3.5 25.9275
      vertex 25.9275 3.5 25.3256
      vertex 25.3256 3.5 25.9275
    endloop
  endfacet
  facet normal 0 1 0
    outer loop
      vertex 22.5778 3.5 27.924
      vertex 24.0145 3.5 27.0122
      vertex 25.3256 3.5 25.9275
    endloop
  endfacet
  facet normal 0 1 0
    outer loop
      vertex 24.0145 3.5 27.0122
      vertex 24.6871 3.5 26.4905
      vertex 25.3256 3.5 25.9275
    endloop
  endfacet
  facet normal 0 -1 0
    outer loop
      vertex 25.3256 -3.5 25.9275
      vertex 24.0145 -3.5 27.0122
      vertex 22.5778 -3.5 27.924
    endloop
  endfacet
  facet normal 0.707107 0 0.707107
    outer loop
      vertex 25.3256 -3.5 25.9275
      vertex 25.9275 -3.5 25.3256
      vertex 25.9275 3.5 25.3256
    endloop
  endfacet
  facet normal 0 1 0
    outer loop
      vertex 26.4905 3.5 24.6871
      vertex 27.0122 3.5 24.0145
      vertex 27.4906 3.5 23.3105
    endloop
  endfacet
  facet normal -0.156487 0 0.98768
    outer loop
      vertex 14.3517 3.5 29.4932
      vertex 13.511 3.5 29.36
      vertex 14.3517 -3.5 29.4932
    endloop
  endfacet
  facet normal 0 1 0
    outer loop
      vertex 8.78955 3.5 27.4906
      vertex 10.2807 3.5 28.3104
      vertex 11.8628 3.5 28.9368
    endloop
  endfacet
  facet normal -0.0940939 0 0.995563
    outer loop
      vertex 14.3517 3.5 29.4932
      vertex 14.3517 -3.5 29.4932
      vertex 15.1992 3.5 29.5733
    endloop
  endfacet
  facet normal 0 1 0
    outer loop
      vertex 14.3517 3.5 29.4932
      vertex 15.1992 3.5 29.5733
      vertex 16.05 3.5 29.6
    endloop
  endfacet
  facet normal 0 1 0
    outer loop
      vertex 10.2807 3.5 28.3104
      vertex 11.0619 3.5 28.6485
      vertex 11.8628 3.5 28.9368
    endloop
  endfacet
  facet normal 0 -1 0
    outer loop
      vertex 11.8628 -3.5 28.9368
      vertex 10.2807 -3.5 28.3104
      vertex 8.78955 -3.5 27.4906
    endloop
  endfacet
  facet normal 0 1 0
    outer loop
      vertex 17.7483 3.5 29.4932
      vertex 18.589 3.5 29.36
      vertex 19.4197 3.5 29.1743
    endloop
  endfacet
  facet normal 0 1 0
    outer loop
      vertex 16.05 3.5 29.6
      vertex 17.7483 3.5 29.4932
      vertex 19.4197 3.5 29.1743
    endloop
  endfacet
  facet normal 0.0313668 0 0.999508
    outer loop
      vertex 16.05 -3.5 29.6
      vertex 16.9008 -3.5 29.5733
      vertex 16.9008 3.5 29.5733
    endloop
  endfacet
  facet normal 0 -1 0
    outer loop
      vertex 22.5778 -3.5 27.924
      vertex 19.4197 -3.5 29.1743
      vertex 16.05 -3.5 29.6
    endloop
  endfacet
  facet normal 0.397192 -0 0.917736
    outer loop
      vertex 21.0381 -3.5 28.6485
      vertex 21.8193 3.5 28.3104
      vertex 21.0381 3.5 28.6485
    endloop
  endfacet
  facet normal 0 1 0
    outer loop
      vertex 21.0381 3.5 28.6485
      vertex 21.8193 3.5 28.3104
      vertex 22.5778 3.5 27.924
    endloop
  endfacet
  facet normal -0.987687 0 0.156442
    outer loop
      vertex 2.60685 3.5 17.7483
      vertex 2.60685 -3.5 17.7483
      vertex 2.74001 3.5 18.589
    endloop
  endfacet
  facet normal -0.975915 0 0.218151
    outer loop
      vertex 2.9257 3.5 19.4197
      vertex 2.74001 3.5 18.589
      vertex 2.9257 -3.5 19.4197
    endloop
  endfacet
  facet normal 0 -1 0
    outer loop
      vertex 2.60685 -3.5 17.7483
      vertex 2.52674 -3.5 16.9008
      vertex 2.5 -3.5 16.05
    endloop
  endfacet
  facet normal 0 -1 0
    outer loop
      vertex 2.9257 -3.5 19.4197
      vertex 2.60685 -3.5 17.7483
      vertex 2.5 -3.5 16.05
    endloop
  endfacet
  facet normal -0.995562 0 0.0941056
    outer loop
      vertex 2.60685 3.5 17.7483
      vertex 2.52674 3.5 16.9008
      vertex 2.60685 -3.5 17.7483
    endloop
  endfacet
  facet normal 0 1 0
    outer loop
      vertex 2.5 3.5 16.05
      vertex 2.52674 3.5 16.9008
      vertex 2.60685 3.5 17.7483
    endloop
  endfacet
  facet normal -0.891018 0 0.453967
    outer loop
      vertex 3.78959 -3.5 21.8193
      vertex 4.17604 3.5 22.5778
      vertex 3.78959 3.5 21.8193
    endloop
  endfacet
  facet normal 0 1 0
    outer loop
      vertex 2.9257 3.5 19.4197
      vertex 3.45153 3.5 21.0381
      vertex 3.78959 3.5 21.8193
    endloop
  endfacet
  facet normal 0 -1 0
    outer loop
      vertex 5.08782 -3.5 24.0145
      vertex 3.78959 -3.5 21.8193
      vertex 2.9257 -3.5 19.4197
    endloop
  endfacet
  facet normal -0.827069 0 0.562101
    outer loop
      vertex 5.08782 3.5 24.0145
      vertex 4.60936 3.5 23.3105
      vertex 5.08782 -3.5 24.0145
    endloop
  endfacet
  facet normal 0 1 0
    outer loop
      vertex 3.78959 3.5 21.8193
      vertex 4.17604 3.5 22.5778
      vertex 4.60936 3.5 23.3105
    endloop
  endfacet
  facet normal -0.917753 0 0.397152
    outer loop
      vertex 3.45153 3.5 21.0381
      vertex 3.78959 -3.5 21.8193
      vertex 3.78959 3.5 21.8193
    endloop
  endfacet
  facet normal -0.707095 0 0.707119
    outer loop
      vertex 6.17247 3.5 25.3256
      vertex 6.77439 -3.5 25.9275
      vertex 6.77439 3.5 25.9275
    endloop
  endfacet
  facet normal 0 1 0
    outer loop
      vertex 5.08782 3.5 24.0145
      vertex 6.17247 3.5 25.3256
      vertex 6.77439 3.5 25.9275
    endloop
  endfacet
  facet normal -0.750107 0 0.661316
    outer loop
      vertex 5.60955 3.5 24.6871
      vertex 6.17247 -3.5 25.3256
      vertex 6.17247 3.5 25.3256
    endloop
  endfacet
  facet normal 0 -1 0
    outer loop
      vertex 8.78955 -3.5 27.4906
      vertex 6.77439 -3.5 25.9275
      vertex 5.08782 -3.5 24.0145
    endloop
  endfacet
  facet normal -0.612885 0 0.790172
    outer loop
      vertex 7.4129 -3.5 26.4905
      vertex 8.08551 3.5 27.0122
      vertex 7.4129 3.5 26.4905
    endloop
  endfacet
  facet normal 0 1 0
    outer loop
      vertex 7.4129 3.5 26.4905
      vertex 8.08551 3.5 27.0122
      vertex 8.78955 3.5 27.4906
    endloop
  endfacet
  facet normal 0.98768 0 0.156487
    outer loop
      vertex 29.36 3.5 18.589
      vertex 29.36 -3.5 18.589
      vertex 29.4932 3.5 17.7483
    endloop
  endfacet
  facet normal 0.995563 0 0.0940939
    outer loop
      vertex 29.5733 3.5 16.9008
      vertex 29.4932 3.5 17.7483
      vertex 29.5733 -3.5 16.9008
    endloop
  endfacet
  facet normal 0 1 0
    outer loop
      vertex 28.9368 3.5 20.2372
      vertex 29.1743 3.5 19.4197
      vertex 29.36 3.5 18.589
    endloop
  endfacet
  facet normal 0 -1 0
    outer loop
      vertex 29.5733 -3.5 16.9008
      vertex 29.36 -3.5 18.589
      vertex 28.9368 -3.5 20.2372
    endloop
  endfacet
  facet normal 0.960295 -0 0.278985
    outer loop
      vertex 28.9368 -3.5 20.2372
      vertex 29.1743 3.5 19.4197
      vertex 28.9368 3.5 20.2372
    endloop
  endfacet
  facet normal 0.975913 0 0.218162
    outer loop
      vertex 29.1743 3.5 19.4197
      vertex 29.1743 -3.5 19.4197
      vertex 29.36 -3.5 18.589
    endloop
  endfacet
  facet normal 0 -1 0
    outer loop
      vertex 28.9368 -3.5 20.2372
      vertex 28.3104 -3.5 21.8193
      vertex 27.4906 -3.5 23.3105
    endloop
  endfacet
  facet normal 0 1 0
    outer loop
      vertex 27.4906 3.5 23.3105
      vertex 27.924 3.5 22.5778
      vertex 28.3104 3.5 21.8193
    endloop
  endfacet
  facet normal 0.940896 0 0.338695
    outer loop
      vertex 28.9368 3.5 20.2372
      vertex 28.6485 3.5 21.0381
      vertex 28.9368 -3.5 20.2372
    endloop
  endfacet
  facet normal 0.891042 0 0.453921
    outer loop
      vertex 27.924 3.5 22.5778
      vertex 28.3104 -3.5 21.8193
      vertex 28.3104 3.5 21.8193
    endloop
  endfacet
  facet normal 0 1 0
    outer loop
      vertex 28.3104 3.5 21.8193
      vertex 28.6485 3.5 21.0381
      vertex 28.9368 3.5 20.2372
    endloop
  endfacet
  facet normal 0.917736 -0 0.397192
    outer loop
      vertex 28.3104 -3.5 21.8193
      vertex 28.6485 3.5 21.0381
      vertex 28.3104 3.5 21.8193
    endloop
  endfacet
  facet normal 0.612891 0 0.790168
    outer loop
      vertex 24.0145 3.5 27.0122
      vertex 24.0145 -3.5 27.0122
      vertex 24.6871 3.5 26.4905
    endloop
  endfacet
  facet normal 0 1 0
    outer loop
      vertex 22.5778 3.5 27.924
      vertex 23.3105 3.5 27.4906
      vertex 24.0145 3.5 27.0122
    endloop
  endfacet
  facet normal 0.612891 0 0.790168
    outer loop
      vertex 24.0145 -3.5 27.0122
      vertex 24.6871 -3.5 26.4905
      vertex 24.6871 3.5 26.4905
    endloop
  endfacet
  facet normal 0.661369 0 0.750061
    outer loop
      vertex 25.3256 3.5 25.9275
      vertex 24.6871 3.5 26.4905
      vertex 25.3256 -3.5 25.9275
    endloop
  endfacet
  facet normal 0.562053 0 0.827101
    outer loop
      vertex 23.3105 3.5 27.4906
      vertex 24.0145 -3.5 27.0122
      vertex 24.0145 3.5 27.0122
    endloop
  endfacet
  facet normal 0 -1 0
    outer loop
      vertex 24.0145 -3.5 27.0122
      vertex 23.3105 -3.5 27.4906
      vertex 22.5778 -3.5 27.924
    endloop
  endfacet
  facet normal 0 -1 0
    outer loop
      vertex 27.4906 -3.5 23.3105
      vertex 26.4905 -3.5 24.6871
      vertex 25.3256 -3.5 25.9275
    endloop
  endfacet
  facet normal 0 1 0
    outer loop
      vertex 25.3256 3.5 25.9275
      vertex 25.9275 3.5 25.3256
      vertex 26.4905 3.5 24.6871
    endloop
  endfacet
  facet normal 0.790168 -0 0.612891
    outer loop
      vertex 26.4905 -3.5 24.6871
      vertex 27.0122 3.5 24.0145
      vertex 26.4905 3.5 24.6871
    endloop
  endfacet
  facet normal 0.750061 0 0.661369
    outer loop
      vertex 25.9275 3.5 25.3256
      vertex 26.4905 -3.5 24.6871
      vertex 26.4905 3.5 24.6871
    endloop
  endfacet
  facet normal 0 -1 0
    outer loop
      vertex 27.4906 -3.5 23.3105
      vertex 27.0122 -3.5 24.0145
      vertex 26.4905 -3.5 24.6871
    endloop
  endfacet
  facet normal 0.827101 0 0.562053
    outer loop
      vertex 27.4906 3.5 23.3105
      vertex 27.0122 3.5 24.0145
      vertex 27.4906 -3.5 23.3105
    endloop
  endfacet
  facet normal -0.397192 0 0.917736
    outer loop
      vertex 10.2807 3.5 28.3104
      vertex 10.2807 -3.5 28.3104
      vertex 11.0619 3.5 28.6485
    endloop
  endfacet
  facet normal 0 1 0
    outer loop
      vertex 8.78955 3.5 27.4906
      vertex 9.52224 3.5 27.924
      vertex 10.2807 3.5 28.3104
    endloop
  endfacet
  facet normal 0 1 0
    outer loop
      vertex 11.8628 3.5 28.9368
      vertex 13.511 3.5 29.36
      vertex 14.3517 3.5 29.4932
    endloop
  endfacet
  facet normal -0.0313668 0 0.999508
    outer loop
      vertex 16.05 3.5 29.6
      vertex 15.1992 3.5 29.5733
      vertex 16.05 -3.5 29.6
    endloop
  endfacet
  facet normal 0 -1 0
    outer loop
      vertex 16.05 -3.5 29.6
      vertex 14.3517 -3.5 29.4932
      vertex 11.8628 -3.5 28.9368
    endloop
  endfacet
  facet normal -0.0940939 0 0.995563
    outer loop
      vertex 14.3517 -3.5 29.4932
      vertex 15.1992 -3.5 29.5733
      vertex 15.1992 3.5 29.5733
    endloop
  endfacet
  facet normal 0 1 0
    outer loop
      vertex 11.8628 3.5 28.9368
      vertex 12.6803 3.5 29.1743
      vertex 13.511 3.5 29.36
    endloop
  endfacet
  facet normal -0.156487 0 0.98768
    outer loop
      vertex 13.511 3.5 29.36
      vertex 13.511 -3.5 29.36
      vertex 14.3517 -3.5 29.4932
    endloop
  endfacet
  facet normal -0.397192 0 0.917736
    outer loop
      vertex 10.2807 -3.5 28.3104
      vertex 11.0619 -3.5 28.6485
      vertex 11.0619 3.5 28.6485
    endloop
  endfacet
  facet normal -0.338695 0 0.940896
    outer loop
      vertex 11.8628 3.5 28.9368
      vertex 11.0619 3.5 28.6485
      vertex 11.8628 -3.5 28.9368
    endloop
  endfacet
  facet normal -0.45394 0 0.891033
    outer loop
      vertex 9.52224 3.5 27.924
      vertex 10.2807 -3.5 28.3104
      vertex 10.2807 3.5 28.3104
    endloop
  endfacet
  facet normal 0 -1 0
    outer loop
      vertex 10.2807 -3.5 28.3104
      vertex 9.52224 -3.5 27.924
      vertex 8.78955 -3.5 27.4906
    endloop
  endfacet
  facet normal 0.156487 0 0.98768
    outer loop
      vertex 17.7483 -3.5 29.4932
      vertex 18.589 -3.5 29.36
      vertex 18.589 3.5 29.36
    endloop
  endfacet
  facet normal 0 1 0
    outer loop
      vertex 16.05 3.5 29.6
      vertex 16.9008 3.5 29.5733
      vertex 17.7483 3.5 29.4932
    endloop
  endfacet
  facet normal 0 -1 0
    outer loop
      vertex 19.4197 -3.5 29.1743
      vertex 17.7483 -3.5 29.4932
      vertex 16.05 -3.5 29.6
    endloop
  endfacet
  facet normal 0.218162 0 0.975913
    outer loop
      vertex 19.4197 3.5 29.1743
      vertex 18.589 3.5 29.36
      vertex 19.4197 -3.5 29.1743
    endloop
  endfacet
  facet normal 0.156487 0 0.98768
    outer loop
      vertex 17.7483 3.5 29.4932
      vertex 17.7483 -3.5 29.4932
      vertex 18.589 3.5 29.36
    endloop
  endfacet
  facet normal 0.0940939 0 0.995563
    outer loop
      vertex 16.9008 3.5 29.5733
      vertex 17.7483 -3.5 29.4932
      vertex 17.7483 3.5 29.4932
    endloop
  endfacet
  facet normal 0.338695 0 0.940896
    outer loop
      vertex 20.2372 3.5 28.9368
      vertex 21.0381 -3.5 28.6485
      vertex 21.0381 3.5 28.6485
    endloop
  endfacet
  facet normal 0 1 0
    outer loop
      vertex 19.4197 3.5 29.1743
      vertex 20.2372 3.5 28.9368
      vertex 21.0381 3.5 28.6485
    endloop
  endfacet
  facet normal 0.278985 0 0.960295
    outer loop
      vertex 19.4197 -3.5 29.1743
      vertex 20.2372 -3.5 28.9368
      vertex 20.2372 3.5 28.9368
    endloop
  endfacet
  facet normal 0 -1 0
    outer loop
      vertex 22.5778 -3.5 27.924
      vertex 21.0381 -3.5 28.6485
      vertex 19.4197 -3.5 29.1743
    endloop
  endfacet
  facet normal 0.453921 0 0.891042
    outer loop
      vertex 21.8193 3.5 28.3104
      vertex 21.8193 -3.5 28.3104
      vertex 22.5778 -3.5 27.924
    endloop
  endfacet
  facet normal 0.453921 0 0.891042
    outer loop
      vertex 22.5778 3.5 27.924
      vertex 21.8193 3.5 28.3104
      vertex 22.5778 -3.5 27.924
    endloop
  endfacet
  facet normal -0.987687 0 0.156442
    outer loop
      vertex 2.60685 -3.5 17.7483
      vertex 2.74001 -3.5 18.589
      vertex 2.74001 3.5 18.589
    endloop
  endfacet
  facet normal 0 -1 0
    outer loop
      vertex 2.9257 -3.5 19.4197
      vertex 2.74001 -3.5 18.589
      vertex 2.60685 -3.5 17.7483
    endloop
  endfacet
  facet normal -0.995562 0 0.0941056
    outer loop
      vertex 2.52674 3.5 16.9008
      vertex 2.52674 -3.5 16.9008
      vertex 2.60685 -3.5 17.7483
    endloop
  endfacet
  facet normal -0.999506 0 0.0314137
    outer loop
      vertex 2.5 -3.5 16.05
      vertex 2.52674 -3.5 16.9008
      vertex 2.52674 3.5 16.9008
    endloop
  endfacet
  facet normal -0.960302 0 0.278963
    outer loop
      vertex 2.9257 -3.5 19.4197
      vertex 3.16318 -3.5 20.2372
      vertex 3.16318 3.5 20.2372
    endloop
  endfacet
  facet normal 0 1 0
    outer loop
      vertex 2.9257 3.5 19.4197
      vertex 3.16318 3.5 20.2372
      vertex 3.45153 3.5 21.0381
    endloop
  endfacet
  facet normal 0 -1 0
    outer loop
      vertex 3.78959 -3.5 21.8193
      vertex 3.45153 -3.5 21.0381
      vertex 2.9257 -3.5 19.4197
    endloop
  endfacet
  facet normal -0.917753 0 0.397152
    outer loop
      vertex 3.45153 3.5 21.0381
      vertex 3.45153 -3.5 21.0381
      vertex 3.78959 -3.5 21.8193
    endloop
  endfacet
  facet normal 0 -1 0
    outer loop
      vertex 5.08782 -3.5 24.0145
      vertex 4.60936 -3.5 23.3105
      vertex 3.78959 -3.5 21.8193
    endloop
  endfacet
  facet normal -0.827069 0 0.562101
    outer loop
      vertex 4.60936 3.5 23.3105
      vertex 4.60936 -3.5 23.3105
      vertex 5.08782 -3.5 24.0145
    endloop
  endfacet
  facet normal 0 -1 0
    outer loop
      vertex 4.60936 -3.5 23.3105
      vertex 4.17604 -3.5 22.5778
      vertex 3.78959 -3.5 21.8193
    endloop
  endfacet
  facet normal -0.860741 0 0.509044
    outer loop
      vertex 4.60936 3.5 23.3105
      vertex 4.17604 3.5 22.5778
      vertex 4.60936 -3.5 23.3105
    endloop
  endfacet
  facet normal -0.79015 0 0.612913
    outer loop
      vertex 5.08782 -3.5 24.0145
      vertex 5.60955 3.5 24.6871
      vertex 5.08782 3.5 24.0145
    endloop
  endfacet
  facet normal -0.79015 0 0.612913
    outer loop
      vertex 5.08782 -3.5 24.0145
      vertex 5.60955 -3.5 24.6871
      vertex 5.60955 3.5 24.6871
    endloop
  endfacet
  facet normal 0 -1 0
    outer loop
      vertex 6.77439 -3.5 25.9275
      vertex 6.17247 -3.5 25.3256
      vertex 5.08782 -3.5 24.0145
    endloop
  endfacet
  facet normal -0.707095 0 0.707119
    outer loop
      vertex 6.17247 3.5 25.3256
      vertex 6.17247 -3.5 25.3256
      vertex 6.77439 -3.5 25.9275
    endloop
  endfacet
  facet normal -0.661363 0 0.750066
    outer loop
      vertex 6.77439 -3.5 25.9275
      vertex 7.4129 -3.5 26.4905
      vertex 7.4129 3.5 26.4905
    endloop
  endfacet
  facet normal 0 -1 0
    outer loop
      vertex 8.78955 -3.5 27.4906
      vertex 7.4129 -3.5 26.4905
      vertex 6.77439 -3.5 25.9275
    endloop
  endfacet
  facet normal -0.562031 0 0.827116
    outer loop
      vertex 8.08551 3.5 27.0122
      vertex 8.08551 -3.5 27.0122
      vertex 8.78955 -3.5 27.4906
    endloop
  endfacet
  facet normal -0.562031 0 0.827116
    outer loop
      vertex 8.78955 3.5 27.4906
      vertex 8.08551 3.5 27.0122
      vertex 8.78955 -3.5 27.4906
    endloop
  endfacet
  facet normal 0.98768 0 0.156487
    outer loop
      vertex 29.36 -3.5 18.589
      vertex 29.4932 -3.5 17.7483
      vertex 29.4932 3.5 17.7483
    endloop
  endfacet
  facet normal 0 -1 0
    outer loop
      vertex 29.5733 -3.5 16.9008
      vertex 29.4932 -3.5 17.7483
      vertex 29.36 -3.5 18.589
    endloop
  endfacet
  facet normal 0.960295 0 0.278985
    outer loop
      vertex 28.9368 -3.5 20.2372
      vertex 29.1743 -3.5 19.4197
      vertex 29.1743 3.5 19.4197
    endloop
  endfacet
  facet normal 0 -1 0
    outer loop
      vertex 29.36 -3.5 18.589
      vertex 29.1743 -3.5 19.4197
      vertex 28.9368 -3.5 20.2372
    endloop
  endfacet
  facet normal 0 -1 0
    outer loop
      vertex 28.3104 -3.5 21.8193
      vertex 27.924 -3.5 22.5778
      vertex 27.4906 -3.5 23.3105
    endloop
  endfacet
  facet normal 0.891042 0 0.453921
    outer loop
      vertex 27.924 3.5 22.5778
      vertex 27.924 -3.5 22.5778
      vertex 28.3104 -3.5 21.8193
    endloop
  endfacet
  facet normal 0.940896 0 0.338695
    outer loop
      vertex 28.6485 3.5 21.0381
      vertex 28.6485 -3.5 21.0381
      vertex 28.9368 -3.5 20.2372
    endloop
  endfacet
  facet normal 0.917736 0 0.397192
    outer loop
      vertex 28.3104 -3.5 21.8193
      vertex 28.6485 -3.5 21.0381
      vertex 28.6485 3.5 21.0381
    endloop
  endfacet
  facet normal 0 -1 0
    outer loop
      vertex 25.3256 -3.5 25.9275
      vertex 24.6871 -3.5 26.4905
      vertex 24.0145 -3.5 27.0122
    endloop
  endfacet
  facet normal 0.661369 0 0.750061
    outer loop
      vertex 24.6871 3.5 26.4905
      vertex 24.6871 -3.5 26.4905
      vertex 25.3256 -3.5 25.9275
    endloop
  endfacet
  facet normal 0.562053 0 0.827101
    outer loop
      vertex 23.3105 3.5 27.4906
      vertex 23.3105 -3.5 27.4906
      vertex 24.0145 -3.5 27.0122
    endloop
  endfacet
  facet normal 0.509113 0 0.8607
    outer loop
      vertex 22.5778 -3.5 27.924
      vertex 23.3105 -3.5 27.4906
      vertex 23.3105 3.5 27.4906
    endloop
  endfacet
  facet normal 0 -1 0
    outer loop
      vertex 26.4905 -3.5 24.6871
      vertex 25.9275 -3.5 25.3256
      vertex 25.3256 -3.5 25.9275
    endloop
  endfacet
  facet normal 0.750061 0 0.661369
    outer loop
      vertex 25.9275 3.5 25.3256
      vertex 25.9275 -3.5 25.3256
      vertex 26.4905 -3.5 24.6871
    endloop
  endfacet
  facet normal 0.827101 0 0.562053
    outer loop
      vertex 27.0122 3.5 24.0145
      vertex 27.0122 -3.5 24.0145
      vertex 27.4906 -3.5 23.3105
    endloop
  endfacet
  facet normal 0.790168 0 0.612891
    outer loop
      vertex 26.4905 -3.5 24.6871
      vertex 27.0122 -3.5 24.0145
      vertex 27.0122 3.5 24.0145
    endloop
  endfacet
  facet normal 0 -1 0
    outer loop
      vertex 16.05 -3.5 29.6
      vertex 15.1992 -3.5 29.5733
      vertex 14.3517 -3.5 29.4932
    endloop
  endfacet
  facet normal -0.0313668 0 0.999508
    outer loop
      vertex 15.1992 3.5 29.5733
      vertex 15.1992 -3.5 29.5733
      vertex 16.05 -3.5 29.6
    endloop
  endfacet
  facet normal -0.278985 0 0.960295
    outer loop
      vertex 11.8628 -3.5 28.9368
      vertex 12.6803 3.5 29.1743
      vertex 11.8628 3.5 28.9368
    endloop
  endfacet
  facet normal -0.218162 0 0.975913
    outer loop
      vertex 12.6803 3.5 29.1743
      vertex 13.511 -3.5 29.36
      vertex 13.511 3.5 29.36
    endloop
  endfacet
  facet normal -0.278985 0 0.960295
    outer loop
      vertex 11.8628 -3.5 28.9368
      vertex 12.6803 -3.5 29.1743
      vertex 12.6803 3.5 29.1743
    endloop
  endfacet
  facet normal 0 -1 0
    outer loop
      vertex 14.3517 -3.5 29.4932
      vertex 13.511 -3.5 29.36
      vertex 11.8628 -3.5 28.9368
    endloop
  endfacet
  facet normal 0 -1 0
    outer loop
      vertex 11.8628 -3.5 28.9368
      vertex 11.0619 -3.5 28.6485
      vertex 10.2807 -3.5 28.3104
    endloop
  endfacet
  facet normal -0.338695 0 0.940896
    outer loop
      vertex 11.0619 3.5 28.6485
      vertex 11.0619 -3.5 28.6485
      vertex 11.8628 -3.5 28.9368
    endloop
  endfacet
  facet normal -0.45394 0 0.891033
    outer loop
      vertex 9.52224 3.5 27.924
      vertex 9.52224 -3.5 27.924
      vertex 10.2807 -3.5 28.3104
    endloop
  endfacet
  facet normal -0.509118 0 0.860697
    outer loop
      vertex 8.78955 -3.5 27.4906
      vertex 9.52224 -3.5 27.924
      vertex 9.52224 3.5 27.924
    endloop
  endfacet
  facet normal 0 -1 0
    outer loop
      vertex 17.7483 -3.5 29.4932
      vertex 16.9008 -3.5 29.5733
      vertex 16.05 -3.5 29.6
    endloop
  endfacet
  facet normal 0.0940939 0 0.995563
    outer loop
      vertex 16.9008 3.5 29.5733
      vertex 16.9008 -3.5 29.5733
      vertex 17.7483 -3.5 29.4932
    endloop
  endfacet
  facet normal 0 -1 0
    outer loop
      vertex 19.4197 -3.5 29.1743
      vertex 18.589 -3.5 29.36
      vertex 17.7483 -3.5 29.4932
    endloop
  endfacet
  facet normal 0.218162 0 0.975913
    outer loop
      vertex 18.589 3.5 29.36
      vertex 18.589 -3.5 29.36
      vertex 19.4197 -3.5 29.1743
    endloop
  endfacet
  facet normal 0 -1 0
    outer loop
      vertex 21.0381 -3.5 28.6485
      vertex 20.2372 -3.5 28.9368
      vertex 19.4197 -3.5 29.1743
    endloop
  endfacet
  facet normal 0.338695 0 0.940896
    outer loop
      vertex 20.2372 3.5 28.9368
      vertex 20.2372 -3.5 28.9368
      vertex 21.0381 -3.5 28.6485
    endloop
  endfacet
  facet normal 0.397192 0 0.917736
    outer loop
      vertex 21.0381 -3.5 28.6485
      vertex 21.8193 -3.5 28.3104
      vertex 21.8193 3.5 28.3104
    endloop
  endfacet
  facet normal 0 -1 0
    outer loop
      vertex 22.5778 -3.5 27.924
      vertex 21.8193 -3.5 28.3104
      vertex 21.0381 -3.5 28.6485
    endloop
  endfacet
  facet normal 0 -1 0
    outer loop
      vertex 3.45153 -3.5 21.0381
      vertex 3.16318 -3.5 20.2372
      vertex 2.9257 -3.5 19.4197
    endloop
  endfacet
  facet normal -0.940878 0 0.338747
    outer loop
      vertex 3.16318 3.5 20.2372
      vertex 3.16318 -3.5 20.2372
      vertex 3.45153 -3.5 21.0381
    endloop
  endfacet
  facet normal -0.860741 0 0.509044
    outer loop
      vertex 4.17604 3.5 22.5778
      vertex 4.17604 -3.5 22.5778
      vertex 4.60936 -3.5 23.3105
    endloop
  endfacet
  facet normal -0.891018 0 0.453967
    outer loop
      vertex 3.78959 -3.5 21.8193
      vertex 4.17604 -3.5 22.5778
      vertex 4.17604 3.5 22.5778
    endloop
  endfacet
  facet normal 0 -1 0
    outer loop
      vertex 6.17247 -3.5 25.3256
      vertex 5.60955 -3.5 24.6871
      vertex 5.08782 -3.5 24.0145
    endloop
  endfacet
  facet normal -0.750107 0 0.661316
    outer loop
      vertex 5.60955 3.5 24.6871
      vertex 5.60955 -3.5 24.6871
      vertex 6.17247 -3.5 25.3256
    endloop
  endfacet
  facet normal -0.612885 0 0.790172
    outer loop
      vertex 7.4129 -3.5 26.4905
      vertex 8.08551 -3.5 27.0122
      vertex 8.08551 3.5 27.0122
    endloop
  endfacet
  facet normal 0 -1 0
    outer loop
      vertex 8.78955 -3.5 27.4906
      vertex 8.08551 -3.5 27.0122
      vertex 7.4129 -3.5 26.4905
    endloop
  endfacet
  facet normal 0 -1 0
    outer loop
      vertex 13.511 -3.5 29.36
      vertex 12.6803 -3.5 29.1743
      vertex 11.8628 -3.5 28.9368
    endloop
  endfacet
  facet normal -0.218162 0 0.975913
    outer loop
      vertex 12.6803 3.5 29.1743
      vertex 12.6803 -3.5 29.1743
      vertex 13.511 -3.5 29.36
    endloop
  endfacet
endsolid OpenSCAD_Model
