solid OpenSCAD_Model
  facet normal -1 0 0
    outer loop
      vertex 0 0 0
      vertex 0 40 2
      vertex 0 40 0
    endloop
  endfacet
  facet normal -1 -0 0
    outer loop
      vertex 0 40 2
      vertex 0 0 0
      vertex 0 0 2
    endloop
  endfacet
  facet normal 0 0 1
    outer loop
      vertex 37 40 2
      vertex 35 38 2
      vertex 37 0 2
    endloop
  endfacet
  facet normal 0 0 1
    outer loop
      vertex 37 40 2
      vertex 2 38 2
      vertex 35 38 2
    endloop
  endfacet
  facet normal 0 0 1
    outer loop
      vertex 2 38 2
      vertex 0 40 2
      vertex 2 2 2
    endloop
  endfacet
  facet normal -0 0 1
    outer loop
      vertex 0 40 2
      vertex 2 38 2
      vertex 37 40 2
    endloop
  endfacet
  facet normal -0 0 1
    outer loop
      vertex 35 2 2
      vertex 37 0 2
      vertex 35 38 2
    endloop
  endfacet
  facet normal -0 0 1
    outer loop
      vertex 2 2 2
      vertex 37 0 2
      vertex 35 2 2
    endloop
  endfacet
  facet normal 0 0 1
    outer loop
      vertex 2 2 2
      vertex 0 0 2
      vertex 37 0 2
    endloop
  endfacet
  facet normal 0 0 1
    outer loop
      vertex 0 0 2
      vertex 2 2 2
      vertex 0 40 2
    endloop
  endfacet
  facet normal 1 -0 0
    outer loop
      vertex 37 0 2
      vertex 37 40 0
      vertex 37 40 2
    endloop
  endfacet
  facet normal 1 0 0
    outer loop
      vertex 37 40 0
      vertex 37 0 2
      vertex 37 0 0
    endloop
  endfacet
  facet normal 0 1 -0
    outer loop
      vertex 37 40 0
      vertex 0 40 2
      vertex 37 40 2
    endloop
  endfacet
  facet normal 0 1 0
    outer loop
      vertex 0 40 2
      vertex 37 40 0
      vertex 0 40 0
    endloop
  endfacet
  facet normal 0 0 -1
    outer loop
      vertex 0 0 0
      vertex 37 40 0
      vertex 37 0 0
    endloop
  endfacet
  facet normal -0 0 -1
    outer loop
      vertex 37 40 0
      vertex 0 0 0
      vertex 0 40 0
    endloop
  endfacet
  facet normal 0 -1 0
    outer loop
      vertex 0 0 0
      vertex 37 0 2
      vertex 0 0 2
    endloop
  endfacet
  facet normal 0 -1 -0
    outer loop
      vertex 37 0 2
      vertex 0 0 0
      vertex 37 0 0
    endloop
  endfacet
  facet normal -1 0 0
    outer loop
      vertex 2 2 2
      vertex 2 38 4
      vertex 2 38 2
    endloop
  endfacet
  facet normal -1 -0 0
    outer loop
      vertex 2 38 4
      vertex 2 2 2
      vertex 2 2 4
    endloop
  endfacet
  facet normal -0 0 1
    outer loop
      vertex 2 38 4
      vertex 35 2 4
      vertex 35 38 4
    endloop
  endfacet
  facet normal 0 0 1
    outer loop
      vertex 35 2 4
      vertex 2 38 4
      vertex 2 2 4
    endloop
  endfacet
  facet normal 1 -0 0
    outer loop
      vertex 35 2 4
      vertex 35 38 2
      vertex 35 38 4
    endloop
  endfacet
  facet normal 1 0 0
    outer loop
      vertex 35 38 2
      vertex 35 2 4
      vertex 35 2 2
    endloop
  endfacet
  facet normal 0 -1 0
    outer loop
      vertex 2 2 2
      vertex 35 2 4
      vertex 2 2 4
    endloop
  endfacet
  facet normal 0 -1 -0
    outer loop
      vertex 35 2 4
      vertex 2 2 2
      vertex 35 2 2
    endloop
  endfacet
  facet normal 0 1 -0
    outer loop
      vertex 35 38 2
      vertex 2 38 4
      vertex 35 38 4
    endloop
  endfacet
  facet normal 0 1 0
    outer loop
      vertex 2 38 4
      vertex 35 38 2
      vertex 2 38 2
    endloop
  endfacet
endsolid OpenSCAD_Model
